<!-- icons.svg -->

<svg xmlns="http://www.w3.org/2000/svg">
    <!-- Dashboard Icon -->
    <symbol id="dashboard" viewBox="0 0 22 21">
        <path d="M16.975 11H10V4.025a1 1 0 0 0-1.066-.998 8.5 8.5 0 1 0 9.039 9.039.999.999 0 0 0-1-1.066h.002Z" />
       <path d="M12.5 0c-.157 0-.311.01-.565.027A1 1 0 0 0 11 1.02V10h8.975a1 1 0 0 0 1-.935c.013-.188.028-.374.028-.565A8.51 8.51 0 0 0 12.5 0Z" />
    </symbol>

    <!-- E-Challan Icon -->
    <symbol id="e-challan" viewBox="0 0 21 22">
        <path fill-rule="evenodd" d="M14.615 1.595a.75.75 0 0 1 .359.852L12.982 9.75h7.268a.75.75 0 0 1 .548 1.262l-10.5 11.25a.75.75 0 0 1-1.272-.71l1.992-7.302H3.75a.75.75 0 0 1-.548-1.262l10.5-11.25a.75.75 0 0 1 .913-.143Z" clip-rule="evenodd" />
    </symbol>

    <!-- Challan Status Icon -->
    <symbol id="challan-status" viewBox="0 0 20 20"> 
        <path fill-rule="evenodd" d="M3 6a3 3 0 0 1 3-3h12a3 3 0 0 1 3 3v12a3 3 0 0 1-3 3H6a3 3 0 0 1-3-3V6Zm4.5 7.5a.75.75 0 0 1 .75.75v2.25a.75.75 0 0 1-1.5 0v-2.25a.75.75 0 0 1 .75-.75Zm3.75-1.5a.75.75 0 0 0-1.5 0v4.5a.75.75 0 0 0 1.5 0V12Zm2.25-3a.75.75 0 0 1 .75.75v6.75a.75.75 0 0 1-1.5 0V9.75A.75.75 0 0 1 13.5 9Zm3.75-1.5a.75.75 0 0 0-1.5 0v9a.75.75 0 0 0 1.5 0v-9Z" clip-rule="evenodd" />
    </symbol>

     <!-- new Challan  Icon -->
    <symbol id="challan" viewBox="0 0 20 20">
         <path fill-rule="evenodd" d="M4.125 3C3.089 3 2.25 3.84 2.25 4.875V18a3 3 0 0 0 3 3h15a3 3 0 0 1-3-3V4.875C17.25 3.839 16.41 3 15.375 3H4.125ZM12 9.75a.75.75 0 0 0 0 1.5h1.5a.75.75 0 0 0 0-1.5H12Zm-.75-2.25a.75.75 0 0 1 .75-.75h1.5a.75.75 0 0 1 0 1.5H12a.75.75 0 0 1-.75-.75ZM6 12.75a.75.75 0 0 0 0 1.5h7.5a.75.75 0 0 0 0-1.5H6Zm-.75 3.75a.75.75 0 0 1 .75-.75h7.5a.75.75 0 0 1 0 1.5H6a.75.75 0 0 1-.75-.75ZM6 6.75a.75.75 0 0 0-.75.75v3c0 .414.336.75.75.75h3a.75.75 0 0 0 .75-.75v-3A.75.75 0 0 0 9 6.75H6Z" clip-rule="evenodd" />
        <path d="M18.75 6.75h1.875c.621 0 1.125.504 1.125 1.125V18a1.5 1.5 0 0 1-3 0V6.75Z" />
    </symbol>

    <!-- sign-out icon -->
    <symbol id="sign-out" viewBox="0 0 21 22" >
       <path fill-rule="evenodd" d="M16.5 3.75a1.5 1.5 0 0 1 1.5 1.5v13.5a1.5 1.5 0 0 1-1.5 1.5h-6a1.5 1.5 0 0 1-1.5-1.5V15a.75.75 0 0 0-1.5 0v3.75a3 3 0 0 0 3 3h6a3 3 0 0 0 3-3V5.25a3 3 0 0 0-3-3h-6a3 3 0 0 0-3 3V9A.75.75 0 1 0 9 9V5.25a1.5 1.5 0 0 1 1.5-1.5h6ZM5.78 8.47a.75.75 0 0 0-1.06 0l-3 3a.75.75 0 0 0 0 1.06l3 3a.75.75 0 0 0 1.06-1.06l-1.72-1.72H15a.75.75 0 0 0 0-1.5H4.06l1.72-1.72a.75.75 0 0 0 0-1.06Z" clip-rule="evenodd" />
    </symbol>

    <!-- complaint icon -->
    <symbol id="complaint" viewBox="0 0 22 22" >
        <path d="M21.731 2.269a2.625 2.625 0 0 0-3.712 0l-1.157 1.157 3.712 3.712 1.157-1.157a2.625 2.625 0 0 0 0-3.712ZM19.513 8.199l-3.712-3.712-8.4 8.4a5.25 5.25 0 0 0-1.32 2.214l-.8 2.685a.75.75 0 0 0 .933.933l2.685-.8a5.25 5.25 0 0 0 2.214-1.32l8.4-8.4Z" />
        <path d="M5.25 5.25a3 3 0 0 0-3 3v10.5a3 3 0 0 0 3 3h10.5a3 3 0 0 0 3-3V13.5a.75.75 0 0 0-1.5 0v5.25a1.5 1.5 0 0 1-1.5 1.5H5.25a1.5 1.5 0 0 1-1.5-1.5V8.25a1.5 1.5 0 0 1 1.5-1.5h5.25a.75.75 0 0 0 0-1.5H5.25Z" />
    </symbol>

     <!--assigned complaint icon -->
    <symbol id="assigned-complaints" viewBox="0 0 22 22" >
        <path d="M21.731 2.269a2.625 2.625 0 0 0-3.712 0l-1.157 1.157 3.712 3.712 1.157-1.157a2.625 2.625 0 0 0 0-3.712ZM19.513 8.199l-3.712-3.712-8.4 8.4a5.25 5.25 0 0 0-1.32 2.214l-.8 2.685a.75.75 0 0 0 .933.933l2.685-.8a5.25 5.25 0 0 0 2.214-1.32l8.4-8.4Z" />
        <path d="M5.25 5.25a3 3 0 0 0-3 3v10.5a3 3 0 0 0 3 3h10.5a3 3 0 0 0 3-3V13.5a.75.75 0 0 0-1.5 0v5.25a1.5 1.5 0 0 1-1.5 1.5H5.25a1.5 1.5 0 0 1-1.5-1.5V8.25a1.5 1.5 0 0 1 1.5-1.5h5.25a.75.75 0 0 0 0-1.5H5.25Z" />
    </symbol>
     
     <!-- complaint-status -->
    <symbol id='complaint-status' viewBox="0 0 22 22" >
      <svg xmlns="http://www.w3.org/2000/svg" fill="none" viewBox="0 0 24 24" stroke-width="1.5" stroke="currentColor" class="w-6 h-6">
          <path stroke-linecap="round" stroke-linejoin="round" d="M6.75 3v2.25M17.25 3v2.25M3 18.75V7.5a2.25 2.25 0 0 1 2.25-2.25h13.5A2.25 2.25 0 0 1 21 7.5v11.25m-18 0A2.25 2.25 0 0 0 5.25 21h13.5A2.25 2.25 0 0 0 21 18.75m-18 0v-7.5A2.25 2.25 0 0 1 5.25 9h13.5A2.25 2.25 0 0 1 21 11.25v7.5m-9-6h.008v.008H12v-.008ZM12 15h.008v.008H12V15Zm0 2.25h.008v.008H12v-.008ZM9.75 15h.008v.008H9.75V15Zm0 2.25h.008v.008H9.75v-.008ZM7.5 15h.008v.008H7.5V15Zm0 2.25h.008v.008H7.5v-.008Zm6.75-4.5h.008v.008h-.008v-.008Zm0 2.25h.008v.008h-.008V15Zm0 2.25h.008v.008h-.008v-.008Zm2.25-4.5h.008v.008H16.5v-.008Zm0 2.25h.008v.008H16.5V15Z" />
      </svg>
    </symbol>

    <!-- create-officer -->
   <symbol id='create-officer' viewBox="0 0 22 22">
      <svg xmlns="http://www.w3.org/2000/svg" viewBox="0 0 24 24" fill="currentColor" class="w-6 h-6">
           <path d="M5.25 6.375a4.125 4.125 0 1 1 8.25 0 4.125 4.125 0 0 1-8.25 0ZM2.25 19.125a7.125 7.125 0 0 1 14.25 0v.003l-.001.119a.75.75 0 0 1-.363.63 13.067 13.067 0 0 1-6.761 1.873c-2.472 0-4.786-.684-6.76-1.873a.75.75 0 0 1-.364-.63l-.001-.122ZM18.75 7.5a.75.75 0 0 0-1.5 0v2.25H15a.75.75 0 0 0 0 1.5h2.25v2.25a.75.75 0 0 0 1.5 0v-2.25H21a.75.75 0 0 0 0-1.5h-2.25V7.5Z" />
       </svg>
   </symbol>
   
   <!-- officer-list -->
   <symbol id='officers' viewBox="0 0 22 22">
      <svg xmlns="http://www.w3.org/2000/svg" fill="none" viewBox="0 0 24 24" stroke-width="1.5" stroke="currentColor" class="w-6 h-6">
           <path stroke-linecap="round" stroke-linejoin="round" d="M8.25 6.75h12M8.25 12h12m-12 5.25h12M3.75 6.75h.007v.008H3.75V6.75Zm.375 0a.375.375 0 1 1-.75 0 .375.375 0 0 1 .75 0ZM3.75 12h.007v.008H3.75V12Zm.375 0a.375.375 0 1 1-.75 0 .375.375 0 0 1 .75 0Zm-.375 5.25h.007v.008H3.75v-.008Zm.375 0a.375.375 0 1 1-.75 0 .375.375 0 0 1 .75 0Z" />
      </svg>
   </symbol>

    <!-- user-list -->
    <symbol id='users' viewBox="0 0 22 22">
       <svg xmlns="http://www.w3.org/2000/svg" viewBox="0 0 24 24" fill="currentColor" class="w-6 h-6">
          <path fill-rule="evenodd" d="M18.685 19.097A9.723 9.723 0 0 0 21.75 12c0-5.385-4.365-9.75-9.75-9.75S2.25 6.615 2.25 12a9.723 9.723 0 0 0 3.065 7.097A9.716 9.716 0 0 0 12 21.75a9.716 9.716 0 0 0 6.685-2.653Zm-12.54-1.285A7.486 7.486 0 0 1 12 15a7.486 7.486 0 0 1 5.855 2.812A8.224 8.224 0 0 1 12 20.25a8.224 8.224 0 0 1-5.855-2.438ZM15.75 9a3.75 3.75 0 1 1-7.5 0 3.75 3.75 0 0 1 7.5 0Z" clip-rule="evenodd" />
       </svg>
    </symbol>


</svg>
